<svg width="45" height="30" viewBox="0 0 45 30" xmlns="http://www.w3.org/2000/svg"><title>logo</title><path d="M44.456.709a.45.45 0 0 0-.535-.204c-.574.13-7.27 11.007-21.66 10.706h-.004a27.254 27.254 0 0 1-7.575-.887l-1.251-3.929a2.438 2.438 0 0 0-1.19-1.46c-.664-.339-1.05-.23-1.132-.136a.254.254 0 0 0-.059.183l.594 4.29C4.31 6.22 1.008.6.594.505A.446.446 0 0 0 .06.709a.759.759 0 0 0-.006.542C2.08 7.157 6.548 11.96 12.368 14.485l1.593 10.379c.109 2.96 2.145 4.654 4.793 4.654h7.92c2.648 0 4.63-1.852 4.797-4.654l1.451-8.582a.18.18 0 0 0-.05-.17c-.09-.053-.78-.074-2.175.932a5.456 5.456 0 0 0-1.87 2.46s-1.509 3.57-1.906 5.094c-.418 1.606-2.27 1.462-2.27 1.462h-4.247c-.77.05-1.45-.488-1.56-1.235l-2.65-9.053a25.05 25.05 0 0 0 6.063.715h.004c10.407.04 19.062-6.15 22.203-15.236a.759.759 0 0 0-.008-.542z" fill="#FFFFFF" fill-rule="evenodd"/></svg>
